%TF.GenerationSoftware,KiCad,Pcbnew,7.0.9*%
%TF.CreationDate,2024-03-12T23:32:05+08:00*%
%TF.ProjectId,picoduino,7069636f-6475-4696-9e6f-2e6b69636164,rev?*%
%TF.SameCoordinates,Original*%
%TF.FileFunction,Other,User*%
%FSLAX46Y46*%
G04 Gerber Fmt 4.6, Leading zero omitted, Abs format (unit mm)*
G04 Created by KiCad (PCBNEW 7.0.9) date 2024-03-12 23:32:05*
%MOMM*%
%LPD*%
G01*
G04 APERTURE LIST*
%ADD10C,0.050000*%
G04 APERTURE END LIST*
D10*
%TO.C,U7*%
X136876158Y-129556719D02*
X136876158Y-132156719D01*
X136876158Y-129556719D02*
X134676158Y-129556719D01*
X134676158Y-132156719D02*
X136876158Y-132156719D01*
X134676158Y-132156719D02*
X134676158Y-129556719D01*
%TO.C,C20*%
X138462000Y-133306000D02*
X138462000Y-130346000D01*
X139922000Y-133306000D02*
X138462000Y-133306000D01*
X138462000Y-130346000D02*
X139922000Y-130346000D01*
X139922000Y-130346000D02*
X139922000Y-133306000D01*
%TO.C,D3*%
X154312000Y-79588000D02*
X152012000Y-79588000D01*
X154312000Y-79588000D02*
X154312000Y-83988000D01*
X154312000Y-83988000D02*
X152012000Y-83988000D01*
X152012000Y-83988000D02*
X152012000Y-79588000D01*
%TO.C,D1*%
X139898000Y-86332000D02*
X132898000Y-86332000D01*
X139898000Y-82832000D02*
X139898000Y-86332000D01*
X132898000Y-86332000D02*
X132898000Y-82832000D01*
X132898000Y-82832000D02*
X139898000Y-82832000D01*
%TO.C,TP1*%
X144252000Y-101854000D02*
G75*
G03*
X144252000Y-101854000I-1250000J0D01*
G01*
%TO.C,C15*%
X138474000Y-124746000D02*
X141434000Y-124746000D01*
X138474000Y-126206000D02*
X138474000Y-124746000D01*
X141434000Y-124746000D02*
X141434000Y-126206000D01*
X141434000Y-126206000D02*
X138474000Y-126206000D01*
%TO.C,C5*%
X154984000Y-85122000D02*
X157944000Y-85122000D01*
X154984000Y-86582000D02*
X154984000Y-85122000D01*
X157944000Y-85122000D02*
X157944000Y-86582000D01*
X157944000Y-86582000D02*
X154984000Y-86582000D01*
%TO.C,Q1*%
X160640000Y-80596000D02*
X160640000Y-83996000D01*
X160640000Y-83996000D02*
X164480000Y-83996000D01*
X164480000Y-80596000D02*
X160640000Y-80596000D01*
X164480000Y-83996000D02*
X164480000Y-80596000D01*
%TO.C,L2*%
X146282000Y-91916000D02*
X149882000Y-91916000D01*
X149882000Y-91916000D02*
X149882000Y-87916000D01*
X146282000Y-87916000D02*
X146282000Y-91916000D01*
X149882000Y-87916000D02*
X146282000Y-87916000D01*
%TO.C,C3*%
X152178000Y-79585000D02*
X152178000Y-76625000D01*
X153638000Y-79585000D02*
X152178000Y-79585000D01*
X152178000Y-76625000D02*
X153638000Y-76625000D01*
X153638000Y-76625000D02*
X153638000Y-79585000D01*
%TO.C,D6*%
X166136000Y-79183000D02*
X168636000Y-79183000D01*
X166136000Y-80583000D02*
X166136000Y-79183000D01*
X168636000Y-79183000D02*
X168636000Y-80583000D01*
X168636000Y-80583000D02*
X166136000Y-80583000D01*
%TO.C,C14*%
X138474000Y-122714000D02*
X141434000Y-122714000D01*
X138474000Y-124174000D02*
X138474000Y-122714000D01*
X141434000Y-122714000D02*
X141434000Y-124174000D01*
X141434000Y-124174000D02*
X138474000Y-124174000D01*
%TO.C,J2*%
X157370000Y-98316000D02*
X149970000Y-98316000D01*
X149970000Y-98316000D02*
X149970000Y-106916000D01*
X157370000Y-106916000D02*
X157370000Y-98316000D01*
X149970000Y-106916000D02*
X157370000Y-106916000D01*
%TO.C,U6*%
X136882000Y-122899500D02*
X136882000Y-125499500D01*
X136882000Y-122899500D02*
X134682000Y-122899500D01*
X134682000Y-125499500D02*
X136882000Y-125499500D01*
X134682000Y-125499500D02*
X134682000Y-122899500D01*
%TO.C,J3*%
X170801000Y-78295000D02*
X170801000Y-68875000D01*
X170801000Y-78295000D02*
X160161000Y-78295000D01*
X170801000Y-68875000D02*
X160161000Y-68875000D01*
X160161000Y-78295000D02*
X160161000Y-68875000D01*
%TO.C,C2*%
X148812000Y-81197000D02*
X148812000Y-84157000D01*
X147352000Y-81197000D02*
X148812000Y-81197000D01*
X148812000Y-84157000D02*
X147352000Y-84157000D01*
X147352000Y-84157000D02*
X147352000Y-81197000D01*
%TO.C,C9*%
X152864000Y-89630000D02*
X149904000Y-89630000D01*
X152864000Y-88170000D02*
X152864000Y-89630000D01*
X149904000Y-89630000D02*
X149904000Y-88170000D01*
X149904000Y-88170000D02*
X152864000Y-88170000D01*
%TO.C,R11*%
X139317257Y-93755398D02*
X142277257Y-93755398D01*
X139317257Y-95215398D02*
X139317257Y-93755398D01*
X142277257Y-93755398D02*
X142277257Y-95215398D01*
X142277257Y-95215398D02*
X139317257Y-95215398D01*
%TO.C,J7*%
X179854000Y-135658000D02*
X176304000Y-135658000D01*
X179854000Y-114308000D02*
X179854000Y-135658000D01*
X176304000Y-135658000D02*
X176304000Y-114308000D01*
X176304000Y-114308000D02*
X179854000Y-114308000D01*
%TO.C,C8*%
X157194000Y-88690000D02*
X157194000Y-91650000D01*
X155734000Y-88690000D02*
X157194000Y-88690000D01*
X157194000Y-91650000D02*
X155734000Y-91650000D01*
X155734000Y-91650000D02*
X155734000Y-88690000D01*
%TO.C,R8*%
X149713000Y-92742000D02*
X152673000Y-92742000D01*
X149713000Y-94202000D02*
X149713000Y-92742000D01*
X152673000Y-92742000D02*
X152673000Y-94202000D01*
X152673000Y-94202000D02*
X149713000Y-94202000D01*
%TO.C,J4*%
X131594000Y-117878000D02*
X128044000Y-117878000D01*
X131594000Y-96528000D02*
X131594000Y-117878000D01*
X128044000Y-117878000D02*
X128044000Y-96528000D01*
X128044000Y-96528000D02*
X131594000Y-96528000D01*
%TO.C,D7*%
X165842000Y-80583000D02*
X163342000Y-80583000D01*
X165842000Y-79183000D02*
X165842000Y-80583000D01*
X163342000Y-80583000D02*
X163342000Y-79183000D01*
X163342000Y-79183000D02*
X165842000Y-79183000D01*
%TO.C,D2*%
X136864000Y-89927500D02*
X133904000Y-89927500D01*
X136864000Y-88467500D02*
X136864000Y-89927500D01*
X133904000Y-89927500D02*
X133904000Y-88467500D01*
X133904000Y-88467500D02*
X136864000Y-88467500D01*
%TO.C,R12*%
X177260000Y-78403000D02*
X177260000Y-81363000D01*
X175800000Y-78403000D02*
X177260000Y-78403000D01*
X177260000Y-81363000D02*
X175800000Y-81363000D01*
X175800000Y-81363000D02*
X175800000Y-78403000D01*
%TO.C,R16*%
X168688000Y-82252000D02*
X168688000Y-79292000D01*
X170148000Y-82252000D02*
X168688000Y-82252000D01*
X168688000Y-79292000D02*
X170148000Y-79292000D01*
X170148000Y-79292000D02*
X170148000Y-82252000D01*
%TO.C,C6*%
X154984000Y-82582000D02*
X157944000Y-82582000D01*
X154984000Y-84042000D02*
X154984000Y-82582000D01*
X157944000Y-82582000D02*
X157944000Y-84042000D01*
X157944000Y-84042000D02*
X154984000Y-84042000D01*
%TO.C,L1*%
X154418000Y-77760000D02*
X154418000Y-82260000D01*
X154418000Y-82260000D02*
X159018000Y-82260000D01*
X159018000Y-77760000D02*
X154418000Y-77760000D01*
X159018000Y-82260000D02*
X159018000Y-77760000D01*
%TO.C,C10*%
X152864000Y-88106000D02*
X149904000Y-88106000D01*
X152864000Y-86646000D02*
X152864000Y-88106000D01*
X149904000Y-88106000D02*
X149904000Y-86646000D01*
X149904000Y-86646000D02*
X152864000Y-86646000D01*
%TO.C,D4*%
X136862000Y-88360000D02*
X133902000Y-88360000D01*
X136862000Y-86900000D02*
X136862000Y-88360000D01*
X133902000Y-88360000D02*
X133902000Y-86900000D01*
X133902000Y-86900000D02*
X136862000Y-86900000D01*
%TO.C,J8*%
X179854000Y-113814000D02*
X176304000Y-113814000D01*
X179854000Y-87414000D02*
X179854000Y-113814000D01*
X176304000Y-113814000D02*
X176304000Y-87414000D01*
X176304000Y-87414000D02*
X179854000Y-87414000D01*
%TO.C,U4*%
X150990500Y-71452000D02*
X150990500Y-74852000D01*
X150990500Y-74852000D02*
X155090500Y-74852000D01*
X155090500Y-71452000D02*
X150990500Y-71452000D01*
X155090500Y-74852000D02*
X155090500Y-71452000D01*
%TO.C,C12*%
X135858000Y-91992000D02*
X135858000Y-94952000D01*
X134398000Y-91992000D02*
X135858000Y-91992000D01*
X135858000Y-94952000D02*
X134398000Y-94952000D01*
X134398000Y-94952000D02*
X134398000Y-91992000D01*
%TO.C,SW1*%
X174068000Y-78442000D02*
X174068000Y-72942000D01*
X177468000Y-78442000D02*
X174068000Y-78442000D01*
X174068000Y-72942000D02*
X177468000Y-72942000D01*
X177468000Y-72942000D02*
X177468000Y-78442000D01*
%TO.C,R6*%
X142462000Y-75504000D02*
X142462000Y-78464000D01*
X141002000Y-75504000D02*
X142462000Y-75504000D01*
X142462000Y-78464000D02*
X141002000Y-78464000D01*
X141002000Y-78464000D02*
X141002000Y-75504000D01*
%TO.C,R15*%
X160318000Y-79153000D02*
X163278000Y-79153000D01*
X160318000Y-80613000D02*
X160318000Y-79153000D01*
X163278000Y-79153000D02*
X163278000Y-80613000D01*
X163278000Y-80613000D02*
X160318000Y-80613000D01*
%TO.C,C16*%
X138474000Y-127286000D02*
X141434000Y-127286000D01*
X138474000Y-128746000D02*
X138474000Y-127286000D01*
X141434000Y-127286000D02*
X141434000Y-128746000D01*
X141434000Y-128746000D02*
X138474000Y-128746000D01*
%TO.C,R9*%
X152761000Y-92742000D02*
X155721000Y-92742000D01*
X152761000Y-94202000D02*
X152761000Y-92742000D01*
X155721000Y-92742000D02*
X155721000Y-94202000D01*
X155721000Y-94202000D02*
X152761000Y-94202000D01*
%TO.C,D5*%
X142868000Y-76644000D02*
X145168000Y-76644000D01*
X142868000Y-76644000D02*
X142868000Y-72244000D01*
X142868000Y-72244000D02*
X145168000Y-72244000D01*
X145168000Y-72244000D02*
X145168000Y-76644000D01*
%TO.C,R7*%
X142462000Y-72456000D02*
X142462000Y-75416000D01*
X141002000Y-72456000D02*
X142462000Y-72456000D01*
X142462000Y-75416000D02*
X141002000Y-75416000D01*
X141002000Y-75416000D02*
X141002000Y-72456000D01*
%TO.C,R13*%
X160306000Y-104096000D02*
X160306000Y-101136000D01*
X161766000Y-104096000D02*
X160306000Y-104096000D01*
X160306000Y-101136000D02*
X161766000Y-101136000D01*
X161766000Y-101136000D02*
X161766000Y-104096000D01*
%TO.C,R3*%
X146844000Y-77680000D02*
X146844000Y-74720000D01*
X148304000Y-77680000D02*
X146844000Y-77680000D01*
X146844000Y-74720000D02*
X148304000Y-74720000D01*
X148304000Y-74720000D02*
X148304000Y-77680000D01*
%TO.C,F1*%
X140612000Y-83582000D02*
X140612000Y-79022000D01*
X142852000Y-83582000D02*
X140612000Y-83582000D01*
X140612000Y-79022000D02*
X142852000Y-79022000D01*
X142852000Y-79022000D02*
X142852000Y-83582000D01*
%TO.C,SW2*%
X145366000Y-105366000D02*
X145366000Y-99866000D01*
X148766000Y-105366000D02*
X145366000Y-105366000D01*
X145366000Y-99866000D02*
X148766000Y-99866000D01*
X148766000Y-99866000D02*
X148766000Y-105366000D01*
%TO.C,FB1*%
X138474000Y-121190000D02*
X141434000Y-121190000D01*
X138474000Y-122650000D02*
X138474000Y-121190000D01*
X141434000Y-121190000D02*
X141434000Y-122650000D01*
X141434000Y-122650000D02*
X138474000Y-122650000D01*
%TO.C,FB3*%
X138474000Y-128810000D02*
X141434000Y-128810000D01*
X138474000Y-130270000D02*
X138474000Y-128810000D01*
X141434000Y-128810000D02*
X141434000Y-130270000D01*
X141434000Y-130270000D02*
X138474000Y-130270000D01*
%TO.C,U2*%
X153746000Y-92436000D02*
X153746000Y-89936000D01*
X153746000Y-89936000D02*
X150546000Y-89936000D01*
X150546000Y-92436000D02*
X153746000Y-92436000D01*
X150546000Y-89936000D02*
X150546000Y-92436000D01*
%TO.C,R10*%
X140164000Y-89884000D02*
X137204000Y-89884000D01*
X140164000Y-88424000D02*
X140164000Y-89884000D01*
X137204000Y-89884000D02*
X137204000Y-88424000D01*
X137204000Y-88424000D02*
X140164000Y-88424000D01*
%TO.C,U5*%
X139210000Y-93394000D02*
X139210000Y-89994000D01*
X139210000Y-89994000D02*
X135110000Y-89994000D01*
X135110000Y-93394000D02*
X139210000Y-93394000D01*
X135110000Y-89994000D02*
X135110000Y-93394000D01*
%TO.C,C11*%
X155480000Y-74632000D02*
X155480000Y-71672000D01*
X156940000Y-74632000D02*
X155480000Y-74632000D01*
X155480000Y-71672000D02*
X156940000Y-71672000D01*
X156940000Y-71672000D02*
X156940000Y-74632000D01*
%TO.C,C19*%
X174276000Y-81363000D02*
X174276000Y-78403000D01*
X175736000Y-81363000D02*
X174276000Y-81363000D01*
X174276000Y-78403000D02*
X175736000Y-78403000D01*
X175736000Y-78403000D02*
X175736000Y-81363000D01*
%TO.C,R1*%
X139099000Y-92014000D02*
X142459000Y-92014000D01*
X139099000Y-93914000D02*
X139099000Y-92014000D01*
X142459000Y-92014000D02*
X142459000Y-93914000D01*
X142459000Y-93914000D02*
X139099000Y-93914000D01*
%TO.C,R14*%
X140164000Y-88360000D02*
X137204000Y-88360000D01*
X140164000Y-86900000D02*
X140164000Y-88360000D01*
X137204000Y-88360000D02*
X137204000Y-86900000D01*
X137204000Y-86900000D02*
X140164000Y-86900000D01*
%TO.C,TP3*%
X144252000Y-104648000D02*
G75*
G03*
X144252000Y-104648000I-1250000J0D01*
G01*
%TO.C,C18*%
X136938000Y-126702000D02*
X136938000Y-123742000D01*
X138398000Y-126702000D02*
X136938000Y-126702000D01*
X136938000Y-123742000D02*
X138398000Y-123742000D01*
X138398000Y-123742000D02*
X138398000Y-126702000D01*
%TO.C,R5*%
X157766000Y-104096000D02*
X157766000Y-101136000D01*
X159226000Y-104096000D02*
X157766000Y-104096000D01*
X157766000Y-101136000D02*
X159226000Y-101136000D01*
X159226000Y-101136000D02*
X159226000Y-104096000D01*
%TO.C,J9*%
X131594000Y-135658000D02*
X128044000Y-135658000D01*
X131594000Y-119408000D02*
X131594000Y-135658000D01*
X128044000Y-135658000D02*
X128044000Y-119408000D01*
X128044000Y-119408000D02*
X131594000Y-119408000D01*
%TO.C,R2*%
X135934000Y-93758000D02*
X138894000Y-93758000D01*
X135934000Y-95218000D02*
X135934000Y-93758000D01*
X138894000Y-93758000D02*
X138894000Y-95218000D01*
X138894000Y-95218000D02*
X135934000Y-95218000D01*
%TO.C,TP2*%
X144252000Y-107569000D02*
G75*
G03*
X144252000Y-107569000I-1250000J0D01*
G01*
%TO.C,C1*%
X146084000Y-78438000D02*
X143984000Y-78438000D01*
X143984000Y-78438000D02*
X143984000Y-79388000D01*
X146284000Y-79388000D02*
X146084000Y-79388000D01*
X146284000Y-79388000D02*
X147434000Y-80538000D01*
X146084000Y-79388000D02*
X146084000Y-78438000D01*
X143984000Y-79388000D02*
X143784000Y-79388000D01*
X143784000Y-79388000D02*
X142634000Y-80538000D01*
X147434000Y-80538000D02*
X147434000Y-84188000D01*
X142634000Y-80538000D02*
X142634000Y-84188000D01*
X147434000Y-84188000D02*
X146084000Y-84188000D01*
X146084000Y-84188000D02*
X146084000Y-85138000D01*
X143984000Y-84188000D02*
X142634000Y-84188000D01*
X146084000Y-85138000D02*
X143984000Y-85138000D01*
X143984000Y-85138000D02*
X143984000Y-84188000D01*
%TO.C,C7*%
X155670000Y-88690000D02*
X155670000Y-91650000D01*
X154210000Y-88690000D02*
X155670000Y-88690000D01*
X155670000Y-91650000D02*
X154210000Y-91650000D01*
X154210000Y-91650000D02*
X154210000Y-88690000D01*
%TO.C,F2*%
X168050000Y-84516000D02*
X164690000Y-84516000D01*
X168050000Y-82616000D02*
X168050000Y-84516000D01*
X164690000Y-84516000D02*
X164690000Y-82616000D01*
X164690000Y-82616000D02*
X168050000Y-82616000D01*
%TO.C,C17*%
X136938000Y-133306000D02*
X136938000Y-130346000D01*
X138398000Y-133306000D02*
X136938000Y-133306000D01*
X136938000Y-130346000D02*
X138398000Y-130346000D01*
X138398000Y-130346000D02*
X138398000Y-133306000D01*
%TO.C,C13*%
X134397000Y-91992000D02*
X134397000Y-94952000D01*
X132937000Y-91992000D02*
X134397000Y-91992000D01*
X134397000Y-94952000D02*
X132937000Y-94952000D01*
X132937000Y-94952000D02*
X132937000Y-91992000D01*
%TO.C,U3*%
X152068000Y-77706000D02*
X148668000Y-77706000D01*
X148668000Y-77706000D02*
X148668000Y-81806000D01*
X152068000Y-81806000D02*
X152068000Y-77706000D01*
X148668000Y-81806000D02*
X152068000Y-81806000D01*
%TO.C,R4*%
X149828000Y-74720000D02*
X149828000Y-77680000D01*
X148368000Y-74720000D02*
X149828000Y-74720000D01*
X149828000Y-77680000D02*
X148368000Y-77680000D01*
X148368000Y-77680000D02*
X148368000Y-74720000D01*
%TO.C,C4*%
X154984000Y-83852000D02*
X157944000Y-83852000D01*
X154984000Y-85312000D02*
X154984000Y-83852000D01*
X157944000Y-83852000D02*
X157944000Y-85312000D01*
X157944000Y-85312000D02*
X154984000Y-85312000D01*
%TO.C,J5*%
X140128000Y-81500000D02*
X140128000Y-65800000D01*
X140128000Y-65800000D02*
X130128000Y-65800000D01*
X130128000Y-81500000D02*
X140128000Y-81500000D01*
X130128000Y-79700000D02*
X130128000Y-81500000D01*
X130128000Y-65800000D02*
X130128000Y-74500000D01*
X128828000Y-79700000D02*
X130128000Y-79700000D01*
X128828000Y-79700000D02*
X128828000Y-74500000D01*
X128828000Y-74500000D02*
X130128000Y-74500000D01*
%TD*%
M02*
