M48
; DRILL file {KiCad 7.0.9} date Tue Mar 12 23:32:00 2024
; FORMAT={-:-/ absolute / inch / decimal}
; #@! TF.CreationDate,2024-03-12T23:32:00+08:00
; #@! TF.GenerationSoftware,Kicad,Pcbnew,7.0.9
; #@! TF.FileFunction,Plated,1,2,PTH
FMAT,2
INCH
; #@! TA.AperFunction,Plated,PTH,ViaDrill
T1C0.0138
; #@! TA.AperFunction,Plated,PTH,ComponentDrill
T2C0.0236
; #@! TA.AperFunction,Plated,PTH,ComponentDrill
T3C0.0394
%
G90
G05
T1
X5.07Y-4.645
X5.145Y-3.49
X5.145Y-3.56
X5.145Y-3.615
X5.145Y-3.675
X5.145Y-3.745
X5.155Y-3.805
X5.155Y-3.915
X5.155Y-4.0
X5.155Y-4.035
X5.155Y-4.1
X5.155Y-4.2
X5.155Y-4.24
X5.155Y-4.415
X5.155Y-4.505
X5.16Y-5.12
X5.18Y-4.73
X5.18Y-4.83
X5.18Y-4.9
X5.215Y-4.91
X5.23Y-4.73
X5.23Y-4.81
X5.23Y-5.02
X5.25Y-5.21
X5.2668Y-5.1268
X5.27Y-4.81
X5.2875Y-4.9275
X5.29Y-4.425
X5.29Y-4.84
X5.295Y-4.52
X5.2953Y-5.2201
X5.3Y-4.7
X5.3Y-4.75
X5.3Y-4.98
X5.3Y-5.11
X5.315Y-5.045
X5.3262Y-4.9562
X5.3347Y-5.22
X5.34Y-4.035
X5.345Y-3.77
X5.35Y-4.315
X5.35Y-5.02
X5.3595Y-3.6833
X5.36Y-3.645
X5.365Y-4.24
X5.38Y-4.98
X5.385Y-3.555
X5.385Y-5.21
X5.3895Y-4.8654
X5.39Y-4.145
X5.39Y-4.82
X5.39Y-5.025
X5.395Y-4.04
X5.395Y-5.255
X5.395Y-5.29
X5.395Y-5.325
X5.395Y-5.355
X5.395Y-5.385
X5.395Y-5.415
X5.395Y-5.445
X5.4Y-4.32
X5.4Y-4.375
X5.4Y-4.43
X5.4Y-4.49
X5.405Y-3.26
X5.42Y-5.255
X5.4217Y-5.04
X5.43Y-4.82
X5.44Y-3.26
X5.44Y-5.1
X5.445Y-3.605
X5.45Y-3.845
X5.45Y-5.01
X5.45Y-5.2
X5.45Y-5.255
X5.455Y-3.89
X5.47Y-3.26
X5.47Y-3.26
X5.47Y-4.9
X5.47Y-4.98
X5.479Y-5.129
X5.48Y-4.7635
X5.48Y-5.23
X5.48Y-5.255
X5.49Y-5.2
X5.5Y-3.58
X5.505Y-3.845
X5.51Y-4.9
X5.52Y-5.2
X5.535Y-3.45
X5.535Y-3.51
X5.55Y-5.2
X5.57Y-4.375
X5.57Y-4.455
X5.57Y-4.505
X5.57Y-4.94
X5.58Y-3.39
X5.58Y-3.76
X5.58Y-5.2
X5.6Y-4.35
X5.6006Y-3.2006
X5.61Y-5.2
X5.635Y-3.515
X5.635Y-3.61
X5.635Y-3.705
X5.64Y-3.2
X5.64Y-5.2
X5.65Y-4.35
X5.655Y-3.315
X5.66Y-3.23
X5.67Y-5.2
X5.671Y-4.18
X5.68Y-4.89
X5.68Y-4.99
X5.695Y-4.415
X5.695Y-4.51
X5.7Y-5.07
X5.7Y-5.2
X5.705Y-3.935
X5.71Y-3.88
X5.71Y-4.58
X5.71Y-4.655
X5.71Y-4.735
X5.73Y-3.48
X5.73Y-3.53
X5.73Y-3.57
X5.73Y-3.62
X5.73Y-3.74
X5.73Y-5.2
X5.735Y-3.68
X5.74Y-3.44
X5.74Y-5.07
X5.755Y-4.01
X5.755Y-4.05
X5.76Y-4.415
X5.76Y-4.51
X5.76Y-4.845
X5.76Y-5.2
X5.7646Y-3.3054
X5.77Y-3.63
X5.775Y-4.225
X5.7787Y-3.2348
X5.79Y-3.44
X5.79Y-3.88
X5.79Y-5.07
X5.79Y-5.2
X5.8Y-3.68
X5.81Y-2.92
X5.81Y-3.33
X5.81Y-3.74
X5.81Y-4.055
X5.81Y-4.415
X5.81Y-4.51
X5.82Y-3.63
X5.82Y-5.2
X5.825Y-4.025
X5.83Y-3.44
X5.84Y-5.07
X5.85Y-3.33
X5.85Y-4.1227
X5.85Y-4.59
X5.85Y-4.65
X5.85Y-5.2
X5.8534Y-4.4393
X5.8534Y-4.4807
X5.86Y-3.63
X5.865Y-2.985
X5.865Y-3.68
X5.88Y-3.88
X5.88Y-5.2
X5.885Y-3.33
X5.89Y-3.41
X5.89Y-4.57
X5.89Y-5.07
X5.9Y-3.9573
X5.9Y-4.01
X5.9Y-4.055
X5.91Y-3.62
X5.91Y-3.74
X5.91Y-4.415
X5.91Y-4.66
X5.91Y-5.2
X5.92Y-2.985
X5.92Y-3.045
X5.92Y-3.34
X5.93Y-3.41
X5.93Y-4.53
X5.93Y-4.57
X5.93Y-4.61
X5.94Y-2.82
X5.94Y-5.07
X5.94Y-5.2
X5.95Y-3.24
X5.95Y-4.22
X5.955Y-3.025
X5.965Y-2.985
X5.97Y-4.57
X5.97Y-4.66
X5.97Y-5.2
X5.975Y-4.415
X5.98Y-3.25
X5.99Y-3.54
X5.99Y-3.63
X5.99Y-5.07
X5.995Y-3.365
X6.0Y-5.2
X6.01Y-3.74
X6.0252Y-2.88
X6.03Y-3.48
X6.03Y-3.53
X6.03Y-4.6
X6.03Y-4.66
X6.03Y-5.07
X6.03Y-5.2
X6.04Y-4.2
X6.04Y-4.415
X6.04Y-4.51
X6.06Y-3.05
X6.06Y-5.2
X6.07Y-3.365
X6.07Y-3.48
X6.08Y-3.25
X6.08Y-3.29
X6.08Y-3.5802
X6.08Y-5.07
X6.09Y-5.2
X6.1Y-3.05
X6.1Y-3.74
X6.1Y-4.4114
X6.1Y-4.565
X6.1Y-4.9
X6.11Y-2.88
X6.11Y-3.48
X6.12Y-5.2
X6.13Y-4.2
X6.13Y-5.07
X6.15Y-3.05
X6.15Y-3.68
X6.15Y-3.83
X6.15Y-5.2
X6.17Y-4.42
X6.17Y-4.55
X6.17Y-4.69
X6.17Y-4.86
X6.175Y-4.61
X6.18Y-5.07
X6.18Y-5.2
X6.19Y-2.85
X6.19Y-2.9105
X6.19Y-3.05
X6.195Y-3.52
X6.195Y-3.65
X6.2Y-3.74
X6.21Y-5.2
X6.23Y-3.32
X6.23Y-4.35
X6.2302Y-3.3568
X6.24Y-3.05
X6.24Y-3.71
X6.24Y-5.2
X6.25Y-3.87
X6.26Y-2.83
X6.27Y-4.35
X6.27Y-5.2
X6.28Y-3.74
X6.29Y-3.11
X6.29Y-3.16
X6.29Y-3.21
X6.295Y-3.355
X6.3Y-2.81
X6.3Y-5.2
X6.31Y-4.15
X6.31Y-4.36
X6.31Y-5.08
X6.32Y-2.89
X6.32Y-4.25
X6.33Y-5.2
X6.335Y-3.49
X6.335Y-3.575
X6.34Y-3.96
X6.36Y-5.08
X6.36Y-5.2
X6.365Y-3.355
X6.39Y-5.2
X6.4Y-3.88
X6.4Y-5.08
X6.41Y-3.2026
X6.415Y-4.245
X6.42Y-3.32
X6.42Y-3.37
X6.42Y-5.2
X6.43Y-2.88
X6.43Y-3.97
X6.43Y-4.04
X6.43Y-4.18
X6.45Y-3.42
X6.45Y-5.08
X6.45Y-5.2
X6.455Y-4.405
X6.47Y-2.88
X6.47Y-3.54
X6.47Y-3.66
X6.48Y-3.34
X6.48Y-3.385
X6.48Y-3.91
X6.48Y-3.97
X6.48Y-4.04
X6.48Y-4.11
X6.48Y-5.2
X6.485Y-3.105
X6.485Y-3.205
X6.5Y-5.08
X6.51Y-4.36
X6.51Y-5.2
X6.5116Y-2.88
X6.515Y-2.98
X6.5171Y-3.145
X6.53Y-5.12
X6.54Y-5.2
X6.55Y-3.145
X6.5516Y-2.98
X6.57Y-4.25
X6.57Y-5.2
X6.585Y-3.2
X6.59Y-2.88
X6.59Y-3.66
X6.59Y-3.92
X6.59Y-4.03
X6.59Y-4.14
X6.6Y-3.375
X6.6Y-3.52
X6.6Y-5.2
X6.625Y-5.225
X6.625Y-5.255
X6.625Y-5.285
X6.625Y-5.315
X6.625Y-5.345
X6.7Y-3.56
X6.7Y-3.84
X6.76Y-3.32
X6.775Y-4.21
X6.78Y-3.06
X6.78Y-3.105
X6.78Y-3.145
X6.78Y-3.19
X6.82Y-3.26
X6.87Y-3.225
T3
X5.11Y-3.87
X5.11Y-3.97
X5.11Y-4.07
X5.11Y-4.17
X5.11Y-4.27
X5.11Y-4.37
X5.11Y-4.47
X5.11Y-4.57
X5.11Y-4.77
X5.11Y-4.87
X5.11Y-4.97
X5.11Y-5.07
X5.11Y-5.17
X5.11Y-5.27
X7.01Y-3.51
X7.01Y-3.61
X7.01Y-3.71
X7.01Y-3.81
X7.01Y-3.91
X7.01Y-4.01
X7.01Y-4.11
X7.01Y-4.21
X7.01Y-4.31
X7.01Y-4.41
X7.01Y-4.57
X7.01Y-4.67
X7.01Y-4.77
X7.01Y-4.87
X7.01Y-4.97
X7.01Y-5.07
X7.01Y-5.17
X7.01Y-5.27
T2
G00X6.3449Y-2.8455
M15
G01X6.3449Y-2.8219
M16
G05
G00X6.3449Y-3.0199
M15
G01X6.3449Y-2.9766
M16
G05
G00X6.6851Y-2.8455
M15
G01X6.6851Y-2.8219
M16
G05
G00X6.6851Y-3.0199
M15
G01X6.6851Y-2.9766
M16
G05
T3
G00X5.131Y-3.0787
M15
G01X5.131Y-2.9921
M16
G05
G00X5.3633Y-2.9016
M15
G01X5.2767Y-2.9016
M16
G05
G00X5.3712Y-3.1496
M15
G01X5.2688Y-3.1496
M16
G05
T0
M30
