%TF.GenerationSoftware,KiCad,Pcbnew,7.0.9*%
%TF.CreationDate,2024-03-12T23:32:05+08:00*%
%TF.ProjectId,picoduino,7069636f-6475-4696-9e6f-2e6b69636164,rev?*%
%TF.SameCoordinates,Original*%
%TF.FileFunction,Soldermask,Top*%
%TF.FilePolarity,Negative*%
%FSLAX46Y46*%
G04 Gerber Fmt 4.6, Leading zero omitted, Abs format (unit mm)*
G04 Created by KiCad (PCBNEW 7.0.9) date 2024-03-12 23:32:05*
%MOMM*%
%LPD*%
G01*
G04 APERTURE LIST*
G04 Aperture macros list*
%AMRoundRect*
0 Rectangle with rounded corners*
0 $1 Rounding radius*
0 $2 $3 $4 $5 $6 $7 $8 $9 X,Y pos of 4 corners*
0 Add a 4 corners polygon primitive as box body*
4,1,4,$2,$3,$4,$5,$6,$7,$8,$9,$2,$3,0*
0 Add four circle primitives for the rounded corners*
1,1,$1+$1,$2,$3*
1,1,$1+$1,$4,$5*
1,1,$1+$1,$6,$7*
1,1,$1+$1,$8,$9*
0 Add four rect primitives between the rounded corners*
20,1,$1+$1,$2,$3,$4,$5,0*
20,1,$1+$1,$4,$5,$6,$7,0*
20,1,$1+$1,$6,$7,$8,$9,0*
20,1,$1+$1,$8,$9,$2,$3,0*%
G04 Aperture macros list end*
%ADD10R,0.663000X0.225000*%
%ADD11R,0.563000X0.225000*%
%ADD12R,0.225000X0.563000*%
%ADD13RoundRect,0.225000X0.250000X-0.225000X0.250000X0.225000X-0.250000X0.225000X-0.250000X-0.225000X0*%
%ADD14RoundRect,0.250000X-0.300000X0.300000X-0.300000X-0.300000X0.300000X-0.300000X0.300000X0.300000X0*%
%ADD15RoundRect,0.250000X1.000000X0.650000X-1.000000X0.650000X-1.000000X-0.650000X1.000000X-0.650000X0*%
%ADD16C,1.500000*%
%ADD17RoundRect,0.225000X-0.225000X-0.250000X0.225000X-0.250000X0.225000X0.250000X-0.225000X0.250000X0*%
%ADD18RoundRect,0.150000X-0.587500X-0.150000X0.587500X-0.150000X0.587500X0.150000X-0.587500X0.150000X0*%
%ADD19R,2.750000X1.000000*%
%ADD20RoundRect,0.150000X0.150000X0.200000X-0.150000X0.200000X-0.150000X-0.200000X0.150000X-0.200000X0*%
%ADD21R,0.740000X2.400000*%
%ADD22C,0.650000*%
%ADD23R,0.600000X1.450000*%
%ADD24R,0.300000X1.450000*%
%ADD25O,1.000000X2.100000*%
%ADD26O,1.000000X1.600000*%
%ADD27RoundRect,0.225000X-0.250000X0.225000X-0.250000X-0.225000X0.250000X-0.225000X0.250000X0.225000X0*%
%ADD28RoundRect,0.225000X0.225000X0.250000X-0.225000X0.250000X-0.225000X-0.250000X0.225000X-0.250000X0*%
%ADD29RoundRect,0.200000X-0.200000X-0.275000X0.200000X-0.275000X0.200000X0.275000X-0.200000X0.275000X0*%
%ADD30R,1.700000X1.700000*%
%ADD31O,1.700000X1.700000*%
%ADD32RoundRect,0.150000X-0.150000X-0.200000X0.150000X-0.200000X0.150000X0.200000X-0.150000X0.200000X0*%
%ADD33RoundRect,0.218750X0.218750X0.256250X-0.218750X0.256250X-0.218750X-0.256250X0.218750X-0.256250X0*%
%ADD34RoundRect,0.200000X-0.275000X0.200000X-0.275000X-0.200000X0.275000X-0.200000X0.275000X0.200000X0*%
%ADD35RoundRect,0.200000X0.275000X-0.200000X0.275000X0.200000X-0.275000X0.200000X-0.275000X-0.200000X0*%
%ADD36RoundRect,0.110000X-0.440000X-1.590000X0.440000X-1.590000X0.440000X1.590000X-0.440000X1.590000X0*%
%ADD37RoundRect,0.150000X-0.512500X-0.150000X0.512500X-0.150000X0.512500X0.150000X-0.512500X0.150000X0*%
%ADD38RoundRect,0.200000X0.800000X-0.200000X0.800000X0.200000X-0.800000X0.200000X-0.800000X-0.200000X0*%
%ADD39RoundRect,0.250000X0.300000X-0.300000X0.300000X0.300000X-0.300000X0.300000X-0.300000X-0.300000X0*%
%ADD40RoundRect,0.250000X0.625000X-0.375000X0.625000X0.375000X-0.625000X0.375000X-0.625000X-0.375000X0*%
%ADD41RoundRect,0.218750X-0.218750X-0.256250X0.218750X-0.256250X0.218750X0.256250X-0.218750X0.256250X0*%
%ADD42RoundRect,0.062500X0.312500X0.062500X-0.312500X0.062500X-0.312500X-0.062500X0.312500X-0.062500X0*%
%ADD43R,0.600000X1.200000*%
%ADD44RoundRect,0.200000X0.200000X0.275000X-0.200000X0.275000X-0.200000X-0.275000X0.200000X-0.275000X0*%
%ADD45RoundRect,0.150000X0.512500X0.150000X-0.512500X0.150000X-0.512500X-0.150000X0.512500X-0.150000X0*%
%ADD46R,1.200000X0.600000*%
%ADD47RoundRect,0.000000X0.600000X0.300000X-0.600000X0.300000X-0.600000X-0.300000X0.600000X-0.300000X0*%
%ADD48R,3.100000X3.100000*%
%ADD49RoundRect,0.250000X-0.262500X-0.450000X0.262500X-0.450000X0.262500X0.450000X-0.262500X0.450000X0*%
%ADD50RoundRect,0.250000X-0.550000X1.050000X-0.550000X-1.050000X0.550000X-1.050000X0.550000X1.050000X0*%
%ADD51RoundRect,0.243750X0.243750X0.456250X-0.243750X0.456250X-0.243750X-0.456250X0.243750X-0.456250X0*%
%ADD52RoundRect,0.150000X-0.150000X0.512500X-0.150000X-0.512500X0.150000X-0.512500X0.150000X0.512500X0*%
%ADD53R,4.600000X2.000000*%
%ADD54O,4.200000X2.000000*%
%ADD55O,2.000000X4.200000*%
G04 APERTURE END LIST*
D10*
%TO.C,U7*%
X136294658Y-131056719D03*
D11*
X136344658Y-130656719D03*
D12*
X136176158Y-130088219D03*
X135776158Y-130088219D03*
X135376158Y-130088219D03*
D11*
X135207658Y-130656719D03*
X135207658Y-131056719D03*
D12*
X135376158Y-131625219D03*
X135776158Y-131625219D03*
X136176158Y-131625219D03*
%TD*%
D13*
%TO.C,C20*%
X139192000Y-132601000D03*
X139192000Y-131051000D03*
%TD*%
D14*
%TO.C,D3*%
X153162000Y-80388000D03*
X153162000Y-83188000D03*
%TD*%
D15*
%TO.C,D1*%
X138398000Y-84582000D03*
X134398000Y-84582000D03*
%TD*%
D16*
%TO.C,TP1*%
X143002000Y-101854000D03*
%TD*%
D17*
%TO.C,C15*%
X139179000Y-125476000D03*
X140729000Y-125476000D03*
%TD*%
%TO.C,C5*%
X155689000Y-85852000D03*
X157239000Y-85852000D03*
%TD*%
D18*
%TO.C,Q1*%
X161622500Y-81346000D03*
X161622500Y-83246000D03*
X163497500Y-82296000D03*
%TD*%
D19*
%TO.C,L2*%
X148082000Y-91066000D03*
X148082000Y-88766000D03*
%TD*%
D13*
%TO.C,C3*%
X152908000Y-78880000D03*
X152908000Y-77330000D03*
%TD*%
D20*
%TO.C,D6*%
X166686000Y-79883000D03*
X168086000Y-79883000D03*
%TD*%
D17*
%TO.C,C14*%
X139179000Y-123444000D03*
X140729000Y-123444000D03*
%TD*%
D21*
%TO.C,J2*%
X156210000Y-100666000D03*
X156210000Y-104566000D03*
X154940000Y-100666000D03*
X154940000Y-104566000D03*
X153670000Y-100666000D03*
X153670000Y-104566000D03*
X152400000Y-100666000D03*
X152400000Y-104566000D03*
X151130000Y-100666000D03*
X151130000Y-104566000D03*
%TD*%
D10*
%TO.C,U6*%
X136300500Y-124399500D03*
D11*
X136350500Y-123999500D03*
D12*
X136182000Y-123431000D03*
X135782000Y-123431000D03*
X135382000Y-123431000D03*
D11*
X135213500Y-123999500D03*
X135213500Y-124399500D03*
D12*
X135382000Y-124968000D03*
X135782000Y-124968000D03*
X136182000Y-124968000D03*
%TD*%
D22*
%TO.C,J3*%
X168371000Y-75625000D03*
X162591000Y-75625000D03*
D23*
X168731000Y-77070000D03*
X167931000Y-77070000D03*
D24*
X166731000Y-77070000D03*
X165731000Y-77070000D03*
X165231000Y-77070000D03*
X164231000Y-77070000D03*
D23*
X163031000Y-77070000D03*
X162231000Y-77070000D03*
X162231000Y-77070000D03*
X163031000Y-77070000D03*
D24*
X163731000Y-77070000D03*
X164731000Y-77070000D03*
X166231000Y-77070000D03*
X167231000Y-77070000D03*
D23*
X167931000Y-77070000D03*
X168731000Y-77070000D03*
D25*
X169801000Y-76155000D03*
D26*
X169801000Y-71975000D03*
D25*
X161161000Y-76155000D03*
D26*
X161161000Y-71975000D03*
%TD*%
D27*
%TO.C,C2*%
X148082000Y-81902000D03*
X148082000Y-83452000D03*
%TD*%
D28*
%TO.C,C9*%
X152159000Y-88900000D03*
X150609000Y-88900000D03*
%TD*%
D29*
%TO.C,R11*%
X139972257Y-94485398D03*
X141622257Y-94485398D03*
%TD*%
D30*
%TO.C,J7*%
X178054000Y-133858000D03*
D31*
X178054000Y-131318000D03*
X178054000Y-128778000D03*
X178054000Y-126238000D03*
X178054000Y-123698000D03*
X178054000Y-121158000D03*
X178054000Y-118618000D03*
X178054000Y-116078000D03*
%TD*%
D27*
%TO.C,C8*%
X156464000Y-89395000D03*
X156464000Y-90945000D03*
%TD*%
D29*
%TO.C,R8*%
X150368000Y-93472000D03*
X152018000Y-93472000D03*
%TD*%
D30*
%TO.C,J4*%
X129794000Y-116078000D03*
D31*
X129794000Y-113538000D03*
X129794000Y-110998000D03*
X129794000Y-108458000D03*
X129794000Y-105918000D03*
X129794000Y-103378000D03*
X129794000Y-100838000D03*
X129794000Y-98298000D03*
%TD*%
D32*
%TO.C,D7*%
X165292000Y-79883000D03*
X163892000Y-79883000D03*
%TD*%
D33*
%TO.C,D2*%
X136171500Y-89197500D03*
X134596500Y-89197500D03*
%TD*%
D34*
%TO.C,R12*%
X176530000Y-79058000D03*
X176530000Y-80708000D03*
%TD*%
D35*
%TO.C,R16*%
X169418000Y-81597000D03*
X169418000Y-79947000D03*
%TD*%
D17*
%TO.C,C6*%
X155689000Y-83312000D03*
X157239000Y-83312000D03*
%TD*%
D36*
%TO.C,L1*%
X155218000Y-80010000D03*
X158218000Y-80010000D03*
%TD*%
D28*
%TO.C,C10*%
X152159000Y-87376000D03*
X150609000Y-87376000D03*
%TD*%
D33*
%TO.C,D4*%
X136169500Y-87630000D03*
X134594500Y-87630000D03*
%TD*%
D30*
%TO.C,J8*%
X178054000Y-112014000D03*
D31*
X178054000Y-109474000D03*
X178054000Y-106934000D03*
X178054000Y-104394000D03*
X178054000Y-101854000D03*
X178054000Y-99314000D03*
X178054000Y-96774000D03*
X178054000Y-94234000D03*
X178054000Y-91694000D03*
X178054000Y-89154000D03*
%TD*%
D37*
%TO.C,U4*%
X151903000Y-72202000D03*
X151903000Y-73152000D03*
X151903000Y-74102000D03*
X154178000Y-74102000D03*
X154178000Y-72202000D03*
%TD*%
D27*
%TO.C,C12*%
X135128000Y-92697000D03*
X135128000Y-94247000D03*
%TD*%
D38*
%TO.C,SW1*%
X175768000Y-77792000D03*
X175768000Y-73592000D03*
%TD*%
D34*
%TO.C,R6*%
X141732000Y-76159000D03*
X141732000Y-77809000D03*
%TD*%
D29*
%TO.C,R15*%
X160973000Y-79883000D03*
X162623000Y-79883000D03*
%TD*%
D17*
%TO.C,C16*%
X139179000Y-128016000D03*
X140729000Y-128016000D03*
%TD*%
D29*
%TO.C,R9*%
X153416000Y-93472000D03*
X155066000Y-93472000D03*
%TD*%
D39*
%TO.C,D5*%
X144018000Y-75844000D03*
X144018000Y-73044000D03*
%TD*%
D34*
%TO.C,R7*%
X141732000Y-73111000D03*
X141732000Y-74761000D03*
%TD*%
D35*
%TO.C,R13*%
X161036000Y-103441000D03*
X161036000Y-101791000D03*
%TD*%
%TO.C,R3*%
X147574000Y-77025000D03*
X147574000Y-75375000D03*
%TD*%
D40*
%TO.C,F1*%
X141732000Y-82702000D03*
X141732000Y-79902000D03*
%TD*%
D38*
%TO.C,SW2*%
X147066000Y-104716000D03*
X147066000Y-100516000D03*
%TD*%
D41*
%TO.C,FB1*%
X139166500Y-121920000D03*
X140741500Y-121920000D03*
%TD*%
%TO.C,FB3*%
X139166500Y-129540000D03*
X140741500Y-129540000D03*
%TD*%
D42*
%TO.C,U2*%
X153121000Y-91936000D03*
X153121000Y-91436000D03*
X153121000Y-90936000D03*
X153121000Y-90436000D03*
X151171000Y-90436000D03*
X151171000Y-90936000D03*
X151171000Y-91436000D03*
X151171000Y-91936000D03*
D43*
X152146000Y-91186000D03*
%TD*%
D44*
%TO.C,R10*%
X139509000Y-89154000D03*
X137859000Y-89154000D03*
%TD*%
D45*
%TO.C,U5*%
X138297500Y-92644000D03*
X138297500Y-90744000D03*
X136022500Y-91694000D03*
%TD*%
D13*
%TO.C,C11*%
X156210000Y-73927000D03*
X156210000Y-72377000D03*
%TD*%
D46*
%TO.C,U1*%
X158776000Y-129206000D03*
D47*
X158776000Y-127936000D03*
X158776000Y-126666000D03*
X158776000Y-125396000D03*
X158776000Y-124126000D03*
X158776000Y-122856000D03*
X158776000Y-121586000D03*
X158776000Y-120316000D03*
X158776000Y-119046000D03*
X158776000Y-117776000D03*
X158776000Y-116506000D03*
X158776000Y-115236000D03*
X158776000Y-113966000D03*
X158776000Y-112696000D03*
D46*
X158776000Y-111426000D03*
D43*
X157226000Y-110806000D03*
X155956000Y-110806000D03*
X154686000Y-110806000D03*
X153416000Y-110806000D03*
X152146000Y-110806000D03*
X150876000Y-110806000D03*
X149606000Y-110806000D03*
X148336000Y-110806000D03*
X147066000Y-110806000D03*
X145796000Y-110806000D03*
X144526000Y-110806000D03*
D46*
X142976000Y-111426000D03*
X142976000Y-112696000D03*
X142976000Y-113966000D03*
X142976000Y-115236000D03*
X142976000Y-116506000D03*
X142976000Y-117776000D03*
X142976000Y-119046000D03*
X142976000Y-120316000D03*
X142976000Y-121586000D03*
X142976000Y-122856000D03*
X142976000Y-124126000D03*
X142976000Y-125396000D03*
X142976000Y-126666000D03*
X142976000Y-127936000D03*
X142976000Y-129206000D03*
D48*
X150756000Y-116086000D03*
%TD*%
D13*
%TO.C,C19*%
X175006000Y-80658000D03*
X175006000Y-79108000D03*
%TD*%
D49*
%TO.C,R1*%
X139866500Y-92964000D03*
X141691500Y-92964000D03*
%TD*%
D44*
%TO.C,R14*%
X139509000Y-87630000D03*
X137859000Y-87630000D03*
%TD*%
D16*
%TO.C,TP3*%
X143002000Y-104648000D03*
%TD*%
D13*
%TO.C,C18*%
X137668000Y-125997000D03*
X137668000Y-124447000D03*
%TD*%
D35*
%TO.C,R5*%
X158496000Y-103441000D03*
X158496000Y-101791000D03*
%TD*%
D30*
%TO.C,J9*%
X129794000Y-133858000D03*
D31*
X129794000Y-131318000D03*
X129794000Y-128778000D03*
X129794000Y-126238000D03*
X129794000Y-123698000D03*
X129794000Y-121158000D03*
%TD*%
D29*
%TO.C,R2*%
X136589000Y-94488000D03*
X138239000Y-94488000D03*
%TD*%
D16*
%TO.C,TP2*%
X143002000Y-107569000D03*
%TD*%
D50*
%TO.C,C1*%
X145034000Y-79988000D03*
X145034000Y-83588000D03*
%TD*%
D27*
%TO.C,C7*%
X154940000Y-89395000D03*
X154940000Y-90945000D03*
%TD*%
D51*
%TO.C,F2*%
X167307500Y-83566000D03*
X165432500Y-83566000D03*
%TD*%
D13*
%TO.C,C17*%
X137668000Y-132601000D03*
X137668000Y-131051000D03*
%TD*%
D27*
%TO.C,C13*%
X133667000Y-92697000D03*
X133667000Y-94247000D03*
%TD*%
D52*
%TO.C,U3*%
X151318000Y-78618500D03*
X150368000Y-78618500D03*
X149418000Y-78618500D03*
X149418000Y-80893500D03*
X150368000Y-80893500D03*
X151318000Y-80893500D03*
%TD*%
D34*
%TO.C,R4*%
X149098000Y-75375000D03*
X149098000Y-77025000D03*
%TD*%
D17*
%TO.C,C4*%
X155689000Y-84582000D03*
X157239000Y-84582000D03*
%TD*%
D53*
%TO.C,J5*%
X135128000Y-80000000D03*
D54*
X135128000Y-73700000D03*
D55*
X130328000Y-77100000D03*
%TD*%
M02*
