%TF.GenerationSoftware,KiCad,Pcbnew,7.0.9*%
%TF.CreationDate,2024-03-12T23:32:05+08:00*%
%TF.ProjectId,picoduino,7069636f-6475-4696-9e6f-2e6b69636164,rev?*%
%TF.SameCoordinates,Original*%
%TF.FileFunction,Soldermask,Bot*%
%TF.FilePolarity,Negative*%
%FSLAX46Y46*%
G04 Gerber Fmt 4.6, Leading zero omitted, Abs format (unit mm)*
G04 Created by KiCad (PCBNEW 7.0.9) date 2024-03-12 23:32:05*
%MOMM*%
%LPD*%
G01*
G04 APERTURE LIST*
%ADD10C,0.650000*%
%ADD11O,1.000000X2.100000*%
%ADD12O,1.000000X1.600000*%
%ADD13R,1.700000X1.700000*%
%ADD14O,1.700000X1.700000*%
%ADD15R,4.600000X2.000000*%
%ADD16O,4.200000X2.000000*%
%ADD17O,2.000000X4.200000*%
G04 APERTURE END LIST*
D10*
%TO.C,J3*%
X168371000Y-75625000D03*
X162591000Y-75625000D03*
D11*
X169801000Y-76155000D03*
D12*
X169801000Y-71975000D03*
D11*
X161161000Y-76155000D03*
D12*
X161161000Y-71975000D03*
%TD*%
D13*
%TO.C,J7*%
X178054000Y-133858000D03*
D14*
X178054000Y-131318000D03*
X178054000Y-128778000D03*
X178054000Y-126238000D03*
X178054000Y-123698000D03*
X178054000Y-121158000D03*
X178054000Y-118618000D03*
X178054000Y-116078000D03*
%TD*%
D13*
%TO.C,J4*%
X129794000Y-116078000D03*
D14*
X129794000Y-113538000D03*
X129794000Y-110998000D03*
X129794000Y-108458000D03*
X129794000Y-105918000D03*
X129794000Y-103378000D03*
X129794000Y-100838000D03*
X129794000Y-98298000D03*
%TD*%
D13*
%TO.C,J8*%
X178054000Y-112014000D03*
D14*
X178054000Y-109474000D03*
X178054000Y-106934000D03*
X178054000Y-104394000D03*
X178054000Y-101854000D03*
X178054000Y-99314000D03*
X178054000Y-96774000D03*
X178054000Y-94234000D03*
X178054000Y-91694000D03*
X178054000Y-89154000D03*
%TD*%
D13*
%TO.C,J9*%
X129794000Y-133858000D03*
D14*
X129794000Y-131318000D03*
X129794000Y-128778000D03*
X129794000Y-126238000D03*
X129794000Y-123698000D03*
X129794000Y-121158000D03*
%TD*%
D15*
%TO.C,J5*%
X135128000Y-80000000D03*
D16*
X135128000Y-73700000D03*
D17*
X130328000Y-77100000D03*
%TD*%
M02*
